<?xml version="1.0" encoding="UTF-8" standalone="no"?>
<!-- Created with Inkscape (http://www.inkscape.org/) -->

<svg
   xmlns:dc="http://purl.org/dc/elements/1.1/"
   xmlns:cc="http://creativecommons.org/ns#"
   xmlns:rdf="http://www.w3.org/1999/02/22-rdf-syntax-ns#"
   xmlns:svg="http://www.w3.org/2000/svg"
   xmlns="http://www.w3.org/2000/svg"
   xmlns:sodipodi="http://sodipodi.sourceforge.net/DTD/sodipodi-0.dtd"
   xmlns:inkscape="http://www.inkscape.org/namespaces/inkscape"
   width="500"
   height="500"
   viewBox="0 0 141.11111 141.11111"
   version="1.1"
   id="svg90851"
   inkscape:version="0.91 r13725"
   sodipodi:docname="impactbyte_all_white.svg"
   inkscape:export-filename="/home/mhaidarh/all/org/impactbyte/repo/brand/logo/impactbyte_logo_red_square.svg.png"
   inkscape:export-xdpi="90"
   inkscape:export-ydpi="90">
  <defs
     id="defs90845">
    <clipPath
       clipPathUnits="userSpaceOnUse"
       id="clipPath171994">
      <rect
         style="opacity:0.66000001;fill:#00b0ff;fill-opacity:1;stroke:none;stroke-width:5;stroke-linecap:round;stroke-linejoin:round;stroke-miterlimit:4;stroke-dasharray:none;stroke-dashoffset:0;stroke-opacity:1"
         id="rect171996"
         width="360.70697"
         height="215.52615"
         x="1154.7113"
         y="2285.3784"
         rx="2.088433"
         ry="2.088433" />
    </clipPath>
    <clipPath
       clipPathUnits="userSpaceOnUse"
       id="clipPath90806">
      <rect
         style="opacity:0.66000001;fill:#00b0ff;fill-opacity:1;stroke:none;stroke-width:5;stroke-linecap:round;stroke-linejoin:round;stroke-miterlimit:4;stroke-dasharray:none;stroke-dashoffset:0;stroke-opacity:1"
         id="rect90808"
         width="183.2639"
         height="286.61984"
         x="1067.2368"
         y="2274.9014"
         rx="2.0539536"
         ry="2.088433" />
    </clipPath>
    <clipPath
       id="clipPath171994-7"
       clipPathUnits="userSpaceOnUse">
      <rect
         ry="2.088433"
         rx="2.088433"
         y="2285.3784"
         x="1154.7113"
         height="215.52615"
         width="360.70697"
         id="rect171996-5"
         style="opacity:0.66000001;fill:#00b0ff;fill-opacity:1;stroke:none;stroke-width:5;stroke-linecap:round;stroke-linejoin:round;stroke-miterlimit:4;stroke-dasharray:none;stroke-dashoffset:0;stroke-opacity:1" />
    </clipPath>
    <clipPath
       id="clipPath90806-3"
       clipPathUnits="userSpaceOnUse">
      <rect
         ry="2.088433"
         rx="2.0539536"
         y="2274.9014"
         x="1067.2368"
         height="286.61984"
         width="183.2639"
         id="rect90808-5"
         style="opacity:0.66000001;fill:#00b0ff;fill-opacity:1;stroke:none;stroke-width:5;stroke-linecap:round;stroke-linejoin:round;stroke-miterlimit:4;stroke-dasharray:none;stroke-dashoffset:0;stroke-opacity:1" />
    </clipPath>
    <clipPath
       id="clipPath171994-753"
       clipPathUnits="userSpaceOnUse">
      <rect
         ry="2.088433"
         rx="2.088433"
         y="2285.3784"
         x="1154.7113"
         height="215.52615"
         width="360.70697"
         id="rect171996-56"
         style="opacity:0.66000001;fill:#00b0ff;fill-opacity:1;stroke:none;stroke-width:5;stroke-linecap:round;stroke-linejoin:round;stroke-miterlimit:4;stroke-dasharray:none;stroke-dashoffset:0;stroke-opacity:1" />
    </clipPath>
    <clipPath
       id="clipPath90806-2"
       clipPathUnits="userSpaceOnUse">
      <rect
         ry="2.088433"
         rx="2.0539536"
         y="2274.9014"
         x="1067.2368"
         height="286.61984"
         width="183.2639"
         id="rect90808-9"
         style="opacity:0.66000001;fill:#00b0ff;fill-opacity:1;stroke:none;stroke-width:5;stroke-linecap:round;stroke-linejoin:round;stroke-miterlimit:4;stroke-dasharray:none;stroke-dashoffset:0;stroke-opacity:1" />
    </clipPath>
    <clipPath
       clipPathUnits="userSpaceOnUse"
       id="clipPath171994-75">
      <rect
         style="opacity:0.66000001;fill:#00b0ff;fill-opacity:1;stroke:none;stroke-width:5;stroke-linecap:round;stroke-linejoin:round;stroke-miterlimit:4;stroke-dasharray:none;stroke-dashoffset:0;stroke-opacity:1"
         id="rect171996-3"
         width="360.70697"
         height="215.52615"
         x="1154.7113"
         y="2285.3784"
         rx="2.088433"
         ry="2.088433" />
    </clipPath>
    <clipPath
       clipPathUnits="userSpaceOnUse"
       id="clipPath90806-5">
      <rect
         style="opacity:0.66000001;fill:#00b0ff;fill-opacity:1;stroke:none;stroke-width:5;stroke-linecap:round;stroke-linejoin:round;stroke-miterlimit:4;stroke-dasharray:none;stroke-dashoffset:0;stroke-opacity:1"
         id="rect90808-6"
         width="183.2639"
         height="286.61984"
         x="1067.2368"
         y="2274.9014"
         rx="2.0539536"
         ry="2.088433" />
    </clipPath>
    <clipPath
       id="clipPath171994-7-1"
       clipPathUnits="userSpaceOnUse">
      <rect
         ry="2.088433"
         rx="2.088433"
         y="2285.3784"
         x="1154.7113"
         height="215.52615"
         width="360.70697"
         id="rect171996-5-2"
         style="opacity:0.66000001;fill:#00b0ff;fill-opacity:1;stroke:none;stroke-width:5;stroke-linecap:round;stroke-linejoin:round;stroke-miterlimit:4;stroke-dasharray:none;stroke-dashoffset:0;stroke-opacity:1" />
    </clipPath>
    <clipPath
       id="clipPath90806-3-7"
       clipPathUnits="userSpaceOnUse">
      <rect
         ry="2.088433"
         rx="2.0539536"
         y="2274.9014"
         x="1067.2368"
         height="286.61984"
         width="183.2639"
         id="rect90808-5-0"
         style="opacity:0.66000001;fill:#00b0ff;fill-opacity:1;stroke:none;stroke-width:5;stroke-linecap:round;stroke-linejoin:round;stroke-miterlimit:4;stroke-dasharray:none;stroke-dashoffset:0;stroke-opacity:1" />
    </clipPath>
  </defs>
  <sodipodi:namedview
     id="base"
     pagecolor="#ffffff"
     bordercolor="#666666"
     borderopacity="1.0"
     inkscape:pageopacity="0.0"
     inkscape:pageshadow="2"
     inkscape:zoom="0.46324274"
     inkscape:cx="-383.63055"
     inkscape:cy="490.57697"
     inkscape:document-units="px"
     inkscape:current-layer="layer1"
     showgrid="false"
     inkscape:window-width="1329"
     inkscape:window-height="744"
     inkscape:window-x="37"
     inkscape:window-y="24"
     inkscape:window-maximized="1"
     units="px"
     inkscape:showpageshadow="false" />
  <metadata
     id="metadata90848">
    <rdf:RDF>
      <cc:Work
         rdf:about="">
        <dc:format>image/svg+xml</dc:format>
        <dc:type
           rdf:resource="http://purl.org/dc/dcmitype/StillImage" />
        <dc:title />
      </cc:Work>
    </rdf:RDF>
  </metadata>
  <g
     inkscape:label="Layer 1"
     inkscape:groupmode="layer"
     id="layer1"
     transform="translate(0,-155.88891)">
    <g
       id="g3411"
       style="fill:#ffffff">
      <path
         sodipodi:nodetypes="cccccccccssscsccccsc"
         inkscape:connector-curvature="0"
         style="opacity:1;fill:#ffffff;fill-opacity:1;stroke-width:11.96073818"
         d="m 85.367019,182.55069 c -0.264938,-3e-5 -0.56675,0.0532 -0.908265,0.1699 -2.943897,0.38298 -5.837369,1.18641 -8.611659,2.27089 -5.200614,1.62975 -10.211148,3.79324 -15.078195,6.23848 -5.69656,2.7917 -12.169249,5.29513 -15.535622,11.04213 -0.64688,1.0114 -0.966334,2.04137 -1.033382,3.067 -0.0043,0.066 -0.0074,0.13201 -0.0097,0.19798 0.0093,0.49351 0.267855,1.70805 2.682884,1.19405 2.999705,-0.63848 2.761352,-3.10191 5.860511,-2.78407 3.09916,0.31788 1.175379,-3.86528 5.801029,-3.41687 4.625654,0.4484 5.178488,-0.67421 6.471114,-2.24053 0.621144,-0.75266 1.836752,-2.32419 2.777927,-2.33892 1.017423,-0.0159 1.786367,1.54854 3.148245,1.28065 2.621694,-0.51564 2.09012,-5.05646 5.800369,-4.56833 3.710244,0.48816 7.515171,-1.63678 7.515171,-1.63678 0,0 0.514836,-0.73427 0.489595,-2.06045 0.0406,-0.14205 1.275321,-1.75712 1.275321,-1.75712 0.462056,-1.21215 0.992528,-1.20867 0.957146,-2.80635 -0.08689,-1.02406 -0.558467,-1.85153 -1.602536,-1.85166 z"
         id="path172264-6" />
      <path
         id="path172266-1"
         transform="matrix(0.28222224,0,0,0.28222224,-4.3063697e-6,155.88891)"
         d="M 243.52539 131.20898 C 230.25629 132.23782 218.041 144.50352 219.60352 158.13477 C 224.2341 170.09357 242.54216 168.11698 249.58008 159.375 C 256.57871 151.57193 255.71854 137.15197 246.41211 131.69727 C 245.49294 131.34719 244.50552 131.20608 243.52539 131.20898 z M 239.63672 143.69141 C 240.61242 143.77467 241.53216 145.01776 241.98047 145.80664 C 242.73288 147.25433 244.05199 148.84036 243.45312 150.57031 C 242.12399 152.78956 239.75098 154.10494 237.48633 155.20117 C 236.32519 155.68356 235.17087 156.19804 233.95117 156.51758 C 232.76357 156.92726 231.20427 156.89995 230.50586 155.67383 C 229.71019 154.07169 230.59077 152.2561 231.38672 150.82227 C 232.67065 148.80453 233.98916 146.68137 235.9668 145.27344 C 236.88312 144.87131 237.48931 144.25396 238.6582 144.05469 C 238.9804 143.7652 239.31148 143.6637 239.63672 143.69141 z "
         style="opacity:1;fill:#ffffff;fill-opacity:1;stroke-width:3.16461182" />
      <path
         id="path172274-8"
         transform="matrix(0.28222224,0,0,0.28222224,-4.3063697e-6,155.88891)"
         d="M 251.93945 170.30664 C 245.44891 170.39409 237.51372 173.81271 229.3125 182.14258 L 225.91602 183.96484 L 235.89648 200.08008 C 236.43063 196.55091 236.08008 192.24707 234.64648 188.625 C 237.57309 183.84022 244.58547 179.0219 250.41797 179.12891 C 250.71397 179.13458 251.00572 179.1517 251.29492 179.18359 C 252.42563 179.10426 253.62572 179.3482 254.50977 180.09375 C 262.34665 186.08063 245.17611 210.36773 232.50195 211.52734 C 233.83375 207.84624 235.04777 203.9184 235.89648 200.08203 L 228.14453 221.16406 C 278.92096 205.29859 273.14189 170.02098 251.93945 170.30664 z "
         style="fill:#ffffff;fill-opacity:1;fill-rule:evenodd;stroke:none;stroke-width:0.83730352px;stroke-linecap:butt;stroke-linejoin:miter;stroke-opacity:1" />
      <path
         sodipodi:nodetypes="cccczcccccccsccccccccccccccccccccccccccccccccscc"
         inkscape:connector-curvature="0"
         style="opacity:1;fill:#ffffff;fill-opacity:1;stroke-width:3.16461182"
         d="m 85.367019,182.55066 c -0.264915,-4e-5 -0.566742,0.0532 -0.908282,0.1699 -2.943888,0.383 -5.837358,1.18641 -8.611645,2.27092 -5.200619,1.62971 -10.211162,3.79321 -15.078183,6.23845 -5.696556,2.7917 -11.233787,4.10668 -15.535639,11.04214 -4.301851,6.93546 3.013844,17.28352 6.10941,12.65784 1.696233,-2.70076 2.898526,-0.40292 3.94502,0.94472 1.770522,-0.68231 1.230964,-5.15134 3.653686,-3.63554 0.924635,4.17574 3.342472,-1.59379 5.235831,-1.26558 0.0378,2.10908 0.0043,5.66767 -2.48206,6.27336 -2.263994,-3.41388 -2.018064,1.11968 -4.156884,1.68107 -2.218971,-0.87303 -4.960552,-1.37733 -4.960552,-1.37733 0,0 -1.875901,1.50373 -1.677033,3.19215 0.405762,3.44505 3.457748,5.9901 6.174991,7.34781 0.445944,0.22554 0.977006,0.21394 1.44011,0.0513 4.208916,-2.47106 9.325476,-3.00769 13.372054,-5.83065 3.223076,-1.58737 1.67937,2.9052 4.004485,3.04902 3.399261,-2.39962 6.727121,-4.90734 9.87748,-7.62789 4.374781,-4.39683 7.951375,-9.57655 10.936975,-15.00534 2.073447,-3.2822 -3.12016,-2.90383 -4.54596,-1.27527 -3.355424,1.74254 -1.83474,-3.36277 -0.7882,-4.73776 0.781707,-2.0385 2.6187,-4.053 1.964034,-6.3454 -1.693087,-1.71828 -4.3662,-0.7479 -6.429882,-0.29695 -2.421491,0.9793 -1.966118,-1.4012 -0.750021,-2.48427 1.086251,-1.50684 1.367605,-5.03649 -0.789735,-5.03675 z m -3.302716,3.83633 c 2.470549,0.62272 -0.35407,3.29566 -1.080347,4.50118 -1.780715,1.68086 0.03738,4.02951 2.156957,3.01674 2.149652,-0.32434 4.46024,-0.92786 6.545754,0.007 -0.899489,3.48616 -3.706948,6.49555 -3.374498,10.26009 0.879569,2.16375 3.703594,1.27242 5.450288,0.88959 -4.768736,7.21971 -8.699103,10.92564 -14.329312,15.66426 -0.50286,-1.10439 0.08427,-3.51998 -2.098766,-3.14471 -2.069629,0.31609 -3.373649,2.18724 -5.385767,2.7711 -4.098397,1.85453 -7.862219,2.98169 -12.034097,4.64471 -2.352385,1.24192 -3.841595,-3.91049 -3.841595,-3.91049 0,0 2.1745,0.53097 2.821519,0.78735 1.698484,0.66656 2.434742,-1.27704 3.337375,-2.75181 1.133696,0.76921 2.934841,2.14192 3.825241,0.009 0.836117,-1.50926 1.954564,-4.22846 2.517908,-6.7749 0.29588,-1.95364 -0.36129,-4.75239 -2.424081,-5.27971 -1.377883,0.31525 -2.931443,4.38709 -3.898467,1.82463 -1.105366,-2.74277 -3.361629,1.58389 -4.361572,2.77879 -1.312047,1.01672 -1.801782,-3.60925 -3.406567,-1.81189 -0.693401,0.83612 -2.431344,2.69303 -2.431344,2.69303 l -2.267646,-2.74217 c -2.20678,-2.66866 -0.08877,-7.27004 2.495439,-9.36222 9.321102,-5.93026 16.925244,-10.33456 31.783578,-14.06954 z"
         id="path172278-7" />
      <path
         inkscape:connector-curvature="0"
         id="path172280-9"
         d="m 76.354581,197.70526 c -1.232152,0.0955 -2.3664,1.23445 -2.221306,2.50024 0.430016,1.11042 2.13007,0.92693 2.783588,0.11515 0.649865,-0.72454 0.569928,-2.0636 -0.294265,-2.57011 -0.08533,-0.0323 -0.177035,-0.0456 -0.268017,-0.0453 z"
         style="opacity:1;fill:#ffffff;fill-opacity:1;stroke-width:3.16461182" />
      <path
         style="opacity:1;fill:#ffffff;fill-opacity:1;stroke-width:3.16461182"
         d="m 82.198397,201.13289 c -1.23211,0.0955 -2.366358,1.23445 -2.221264,2.50024 0.429972,1.11042 2.130028,0.92693 2.783546,0.11515 0.649864,-0.72453 0.569927,-2.06359 -0.294266,-2.57011 -0.08533,-0.0323 -0.176993,-0.0456 -0.268016,-0.0453 z"
         id="path172282-2"
         inkscape:connector-curvature="0" />
      <path
         inkscape:connector-curvature="0"
         id="path172284-0"
         d="m 77.719341,202.31314 c -1.23211,0.0955 -2.366358,1.23445 -2.221264,2.50024 0.429972,1.11042 2.130028,0.92693 2.783545,0.11515 0.649865,-0.72454 0.569927,-2.0636 -0.294223,-2.57011 -0.08537,-0.0323 -0.177035,-0.0456 -0.268058,-0.0453 z"
         style="opacity:1;fill:#ffffff;fill-opacity:1;stroke-width:3.16461182" />
    </g>
    <text
       xml:space="preserve"
       style="font-style:normal;font-weight:normal;font-size:14.58483315px;line-height:125%;font-family:sans-serif;letter-spacing:0px;word-spacing:0px;fill:#ffffff;fill-opacity:1;stroke:none;stroke-width:1px;stroke-linecap:butt;stroke-linejoin:miter;stroke-opacity:1"
       x="41.341568"
       y="245.88213"
       id="text3359-3"
       sodipodi:linespacing="125%"><tspan
         sodipodi:role="line"
         id="tspan3361-6"
         x="41.341568"
         y="245.88213"
         style="font-style:normal;font-variant:normal;font-weight:bold;font-stretch:normal;font-family:Montserrat;-inkscape-font-specification:'Montserrat Bold';fill:#ffffff;fill-opacity:1">IMPACT</tspan></text>
    <text
       xml:space="preserve"
       style="font-style:normal;font-weight:normal;font-size:31.02488708px;line-height:100%;font-family:sans-serif;letter-spacing:0px;word-spacing:0px;fill:#ffffff;fill-opacity:1;stroke:none;stroke-width:1px;stroke-linecap:butt;stroke-linejoin:miter;stroke-opacity:1"
       x="42.038597"
       y="271.28256"
       id="text3425"
       sodipodi:linespacing="100%"><tspan
         sodipodi:role="line"
         id="tspan3427"
         x="42.038597"
         y="271.28256"
         style="font-style:normal;font-variant:normal;font-weight:500;font-stretch:normal;line-height:100%;font-family:OneDirection;-inkscape-font-specification:'OneDirection Medium';letter-spacing:0.77562213px;fill:#ffffff;fill-opacity:1"
         dx="0">BYTE</tspan></text>
  </g>
</svg>
