<?xml version="1.0" encoding="UTF-8" standalone="no"?>
<!-- Created with Inkscape (http://www.inkscape.org/) -->

<svg
   xmlns:dc="http://purl.org/dc/elements/1.1/"
   xmlns:cc="http://creativecommons.org/ns#"
   xmlns:rdf="http://www.w3.org/1999/02/22-rdf-syntax-ns#"
   xmlns:svg="http://www.w3.org/2000/svg"
   xmlns="http://www.w3.org/2000/svg"
   xmlns:sodipodi="http://sodipodi.sourceforge.net/DTD/sodipodi-0.dtd"
   xmlns:inkscape="http://www.inkscape.org/namespaces/inkscape"
   width="500"
   height="500"
   viewBox="0 0 141.11111 141.11111"
   version="1.1"
   id="svg90851"
   inkscape:version="0.91 r13725"
   sodipodi:docname="impactbyte_square_black-trans.svg">
  <defs
     id="defs90845">
    <clipPath
       clipPathUnits="userSpaceOnUse"
       id="clipPath171994">
      <rect
         style="opacity:0.66000001;fill:#00b0ff;fill-opacity:1;stroke:none;stroke-width:5;stroke-linecap:round;stroke-linejoin:round;stroke-miterlimit:4;stroke-dasharray:none;stroke-dashoffset:0;stroke-opacity:1"
         id="rect171996"
         width="360.70697"
         height="215.52615"
         x="1154.7113"
         y="2285.3784"
         rx="2.088433"
         ry="2.088433" />
    </clipPath>
    <clipPath
       clipPathUnits="userSpaceOnUse"
       id="clipPath90806">
      <rect
         style="opacity:0.66000001;fill:#00b0ff;fill-opacity:1;stroke:none;stroke-width:5;stroke-linecap:round;stroke-linejoin:round;stroke-miterlimit:4;stroke-dasharray:none;stroke-dashoffset:0;stroke-opacity:1"
         id="rect90808"
         width="183.2639"
         height="286.61984"
         x="1067.2368"
         y="2274.9014"
         rx="2.0539536"
         ry="2.088433" />
    </clipPath>
    <clipPath
       id="clipPath171994-75"
       clipPathUnits="userSpaceOnUse">
      <rect
         ry="2.088433"
         rx="2.088433"
         y="2285.3784"
         x="1154.7113"
         height="215.52615"
         width="360.70697"
         id="rect171996-3"
         style="opacity:0.66000001;fill:#00b0ff;fill-opacity:1;stroke:none;stroke-width:5;stroke-linecap:round;stroke-linejoin:round;stroke-miterlimit:4;stroke-dasharray:none;stroke-dashoffset:0;stroke-opacity:1" />
    </clipPath>
    <clipPath
       id="clipPath90806-5"
       clipPathUnits="userSpaceOnUse">
      <rect
         ry="2.088433"
         rx="2.0539536"
         y="2274.9014"
         x="1067.2368"
         height="286.61984"
         width="183.2639"
         id="rect90808-6"
         style="opacity:0.66000001;fill:#00b0ff;fill-opacity:1;stroke:none;stroke-width:5;stroke-linecap:round;stroke-linejoin:round;stroke-miterlimit:4;stroke-dasharray:none;stroke-dashoffset:0;stroke-opacity:1" />
    </clipPath>
    <clipPath
       clipPathUnits="userSpaceOnUse"
       id="clipPath171994-7">
      <rect
         style="opacity:0.66000001;fill:#00b0ff;fill-opacity:1;stroke:none;stroke-width:5;stroke-linecap:round;stroke-linejoin:round;stroke-miterlimit:4;stroke-dasharray:none;stroke-dashoffset:0;stroke-opacity:1"
         id="rect171996-5"
         width="360.70697"
         height="215.52615"
         x="1154.7113"
         y="2285.3784"
         rx="2.088433"
         ry="2.088433" />
    </clipPath>
    <clipPath
       clipPathUnits="userSpaceOnUse"
       id="clipPath90806-3">
      <rect
         style="opacity:0.66000001;fill:#00b0ff;fill-opacity:1;stroke:none;stroke-width:5;stroke-linecap:round;stroke-linejoin:round;stroke-miterlimit:4;stroke-dasharray:none;stroke-dashoffset:0;stroke-opacity:1"
         id="rect90808-5"
         width="183.2639"
         height="286.61984"
         x="1067.2368"
         y="2274.9014"
         rx="2.0539536"
         ry="2.088433" />
    </clipPath>
  </defs>
  <sodipodi:namedview
     id="base"
     pagecolor="#ffffff"
     bordercolor="#666666"
     borderopacity="1.0"
     inkscape:pageopacity="0.0"
     inkscape:pageshadow="2"
     inkscape:zoom="0.96058025"
     inkscape:cx="-82.226624"
     inkscape:cy="214.92868"
     inkscape:document-units="px"
     inkscape:current-layer="layer1"
     showgrid="false"
     inkscape:window-width="1366"
     inkscape:window-height="744"
     inkscape:window-x="0"
     inkscape:window-y="24"
     inkscape:window-maximized="1"
     units="px"
     inkscape:showpageshadow="false" />
  <metadata
     id="metadata90848">
    <rdf:RDF>
      <cc:Work
         rdf:about="">
        <dc:format>image/svg+xml</dc:format>
        <dc:type
           rdf:resource="http://purl.org/dc/dcmitype/StillImage" />
        <dc:title />
      </cc:Work>
    </rdf:RDF>
  </metadata>
  <g
     inkscape:label="Layer 1"
     inkscape:groupmode="layer"
     id="layer1"
     transform="translate(0,-155.88891)">
    <g
       transform="matrix(0.84666675,0,0,0.84666675,-364.88355,-197.62873)"
       id="g5213">
      <path
         style="opacity:1;fill:#ffffff;fill-opacity:1;stroke:none;stroke-width:11.96073818"
         d="m 540.46163,457.46768 c -20.86452,3.255 -39.95468,13.10343 -58.57956,22.56489 -8.73211,5.02731 -18.42971,13.39921 -17.52515,24.50494 0.81623,6.81845 4.56534,13.36099 9.66805,17.8133 1.42578,1.04566 4.17905,0.47827 5.07785,0.35113 -4.31585,6.33899 0.20947,14.70629 5.74826,18.66883 3.21223,2.76294 7.98002,4.22307 11.59023,1.32719 7.02447,-3.07566 15.00192,-4.59135 21.44805,-9.07424 0.68696,3.83121 5.35489,7.79102 8.83239,4.29776 12.62914,-8.47991 24.12737,-18.98635 31.79661,-32.26365 2.31648,-4.12346 6.55326,-8.42644 5.65727,-13.43969 -1.99869,-4.48544 -8.43191,-4.13881 -11.93127,-1.70169 1.8181,-5.83486 7.74966,-11.56629 4.85736,-18.01316 -2.9863,-3.57553 -8.30706,-3.17516 -12.23692,-2.24458 2.75357,-4.34751 2.2233,-12.7496 -4.40317,-12.79103 z"
         id="path172260-3"
         inkscape:connector-curvature="0" />
      <path
         style="opacity:1;fill:#ffffff;fill-opacity:1;stroke-width:11.96073818"
         d="m 540.53887,460.4761 c -0.46938,-5e-5 -1.00409,0.0943 -1.60914,0.301 -5.21556,0.67851 -10.34179,2.10192 -15.25687,4.02324 -9.21368,2.88735 -18.09061,6.72031 -26.71333,11.05242 -10.09233,4.94593 -21.55969,9.38113 -27.52374,19.56282 -4.56816,7.14235 0.0794,14.80807 5.53244,20.42106 1.34202,3.35758 5.65269,1.26263 7.53121,-1.77869 3.0051,-4.78478 2.89528,3.06907 4.74927,5.45668 3.13681,-1.20886 2.18084,-9.12639 6.4731,-6.44092 1.63815,7.39791 5.9217,-2.82366 9.27607,-2.2422 0.067,3.73659 0.004,10.04117 -4.39733,11.11425 -4.01103,-6.04817 -3.83953,3.87504 -9.21268,4.06017 -4.04963,-2.40621 -10.14005,-3.49829 -8.82032,2.83717 0.11178,5.81871 5.03484,9.90851 9.84887,12.31394 0.79004,0.39959 1.73091,0.37903 2.55137,0.0908 7.45674,-4.3779 16.52151,-5.32861 23.69066,-10.32991 4.86397,-5.0024 2.97528,5.147 7.09452,5.40178 6.02233,-4.25127 11.91812,-8.69412 17.49947,-13.51397 7.75058,-7.78968 14.08713,-16.96633 19.37655,-26.58423 3.67345,-5.81492 -5.52785,-5.14458 -8.05384,-2.25934 -5.94466,3.08717 -3.25054,-5.95769 -1.39644,-8.39371 1.38489,-3.61152 4.63942,-7.18047 3.4796,-11.24182 -2.99957,-3.04419 -7.73544,-1.32505 -11.39152,-0.52611 -4.29007,1.73502 -3.48325,-2.48246 -1.32876,-4.40123 1.92441,-2.66958 2.42287,-8.92295 -1.39916,-8.92337 z"
         id="path172262-6"
         inkscape:connector-curvature="0"
         sodipodi:nodetypes="ccccccccccccccccccccccccc" />
      <path
         inkscape:connector-curvature="0"
         transform="translate(0,252.36235)"
         id="path172264-7"
         d="m 540.53906,208.11328 c -0.46934,-7e-5 -1.00428,0.0941 -1.60937,0.30078 -5.21555,0.67854 -10.34079,2.10206 -15.25586,4.02344 -9.21369,2.88728 -18.09218,6.72061 -26.71485,11.05273 -8.98026,4.40095 -17.73168,6.7487 -24.92187,15.86524 -0.94919,1.14576 -1.82415,2.37009 -2.60156,3.69726 -0.24277,0.3914 -0.46216,0.79075 -0.66407,1.19336 -0.0831,0.16733 -0.15477,0.33425 -0.22851,0.50196 -5.56485,12.19108 6.47916,28.55702 11.7168,20.73047 3.00513,-4.78481 5.13426,-0.71373 6.98828,1.67382 3.13676,-1.20881 2.18239,-9.12687 6.47461,-6.4414 1.63813,7.39796 5.92101,-2.82366 9.27539,-2.24219 0.067,3.73656 0.007,10.04216 -4.39844,11.11523 -4.01102,-6.04821 -3.57403,1.98393 -7.36328,2.97852 -3.93125,-1.5467 -8.78906,-2.44141 -8.78906,-2.44141 0,0 -3.32303,2.66496 -2.97071,5.65625 0.71887,6.10344 6.12545,10.61218 10.93946,13.01758 0.79006,0.39957 1.73227,0.37797 2.55273,0.0899 7.45674,-4.37786 16.52032,-5.32877 23.68945,-10.33008 5.71018,-2.81227 2.97641,5.14754 7.09571,5.40234 6.02231,-4.2513 11.9167,-8.6938 17.49804,-13.51367 7.7506,-7.78966 14.08751,-16.96605 19.37696,-26.58398 3.67343,-5.81493 -5.52866,-5.14501 -8.05469,-2.25977 -5.94464,3.08718 -3.24864,-5.95658 -1.39453,-8.39258 1.38491,-3.61152 4.63836,-7.18085 3.47851,-11.24219 -2.99956,-3.0442 -7.73449,-1.32626 -11.39062,-0.52734 -4.29004,1.73498 -3.48459,-2.48157 -1.33008,-4.40039 0.98797,-1.3705 1.59477,-3.68273 1.43945,-5.61133 -2.2e-4,-0.0117 2.6e-4,-0.0195 0,-0.0312 -0.005,-0.0548 -0.0156,-0.10601 -0.0215,-0.16015 -0.0167,-0.15296 -0.0355,-0.3045 -0.0625,-0.45118 -0.0137,-0.0744 -0.0324,-0.14423 -0.0488,-0.21679 -0.0316,-0.13959 -0.0635,-0.27853 -0.10547,-0.41016 -0.0223,-0.0699 -0.0509,-0.13383 -0.0762,-0.20117 -0.046,-0.12232 -0.0903,-0.24432 -0.14648,-0.35742 -0.0388,-0.0784 -0.087,-0.14721 -0.13086,-0.22071 -0.0568,-0.095 -0.11037,-0.19323 -0.17578,-0.27929 -0.0499,-0.0658 -0.11094,-0.11949 -0.16602,-0.17969 -0.0708,-0.0773 -0.13723,-0.15928 -0.2168,-0.22656 -0.0779,-0.066 -0.16935,-0.1162 -0.25586,-0.17188 -0.0711,-0.0457 -0.13582,-0.0985 -0.21289,-0.13672 -0.14543,-0.0724 -0.30538,-0.12612 -0.47265,-0.16992 -0.0281,-0.007 -0.0514,-0.0208 -0.0801,-0.0273 -0.001,-2.7e-4 -0.003,2.6e-4 -0.004,0 -0.20497,-0.0461 -0.42432,-0.0722 -0.66211,-0.0723 z m -9.03125,17.56641 c 0.0947,2.13636 2.45529,3.80868 5.08789,2.55078 3.80844,-0.57462 7.9009,-1.64453 11.59571,0.0117 -1.59358,6.17627 -6.56751,11.50827 -5.97852,18.17773 1.55829,3.83342 6.56171,2.25441 9.65625,1.57617 -8.44855,12.79082 -15.41195,19.35481 -25.38672,27.75 -0.8909,-1.95659 0.14883,-6.23516 -3.71875,-5.57031 -3.66667,0.56 -5.97624,3.87576 -9.54101,4.91016 -7.26094,3.28558 -13.9292,5.28222 -21.32032,8.22851 -4.16761,2.20025 -6.80664,-6.92773 -6.80664,-6.92773 0,0 3.85371,0.94032 5,1.39453 3.00912,1.18092 4.31296,-2.26222 5.91211,-4.875 2.00852,1.36277 5.19987,3.79447 6.77735,0.0156 0.24776,-0.44724 0.51243,-0.97158 0.78125,-1.52735 32.89445,-10.40746 17.84867,-37.17921 0.38867,-19.44531 l -0.0137,0.008 c -0.30934,-0.16214 -0.63444,-0.30162 -0.99024,-0.39258 -2.44113,0.55852 -5.19302,7.77222 -6.90625,3.23243 -1.95833,-4.85924 -5.95695,2.80687 -7.72851,4.92382 -2.32449,1.80127 -3.19204,-6.39523 -6.03516,-3.21093 -1.22847,1.48131 -4.30664,4.77148 -4.30664,4.77148 l -4.01758,-4.85742 c -1.28049,-1.5485 -1.72666,-3.46603 -1.60351,-5.47266 5.30157,-1.13525 4.88466,-5.49235 10.37109,-4.92969 5.49064,0.56317 2.08229,-6.84911 10.27734,-6.05468 2.66559,0.25839 4.61389,0.24943 6.1211,0.0293 2.34869,5.92061 11.4563,4.92836 14.96484,0.57032 1.67733,-1.87013 2.44198,-4.50078 2.28125,-7.03321 3.11684,-2.07878 3.05984,-8.26844 8.87109,-7.5039 2.15344,0.28333 4.32105,0.0656 6.26758,-0.34961 z m -22.39062,7.04492 c 0.48785,0.0417 0.94772,0.6622 1.17187,1.05664 0.37621,0.72384 1.03576,1.51783 0.73633,2.38281 -0.66457,1.10962 -1.85204,1.76634 -2.98437,2.31446 -0.58057,0.24119 -1.15773,0.49843 -1.76758,0.6582 -0.5938,0.20484 -1.37346,0.19118 -1.72266,-0.42188 -0.39784,-0.80107 0.0415,-1.70886 0.43945,-2.42578 0.64196,-1.00887 1.3022,-2.07142 2.29102,-2.77539 0.45816,-0.20106 0.76126,-0.50778 1.3457,-0.60742 0.1611,-0.14474 0.32762,-0.19549 0.49024,-0.18164 z m 15.45508,2.23828 c -2.18294,0.16919 -4.19261,2.18715 -3.93555,4.42969 0.76184,1.96728 3.77384,1.64132 4.93164,0.20312 1.15134,-1.28363 1.00955,-3.65537 -0.52148,-4.55273 -0.15118,-0.0572 -0.31342,-0.0807 -0.47461,-0.0801 z m 10.35351,6.07227 c -2.18287,0.1692 -4.19261,2.18714 -3.93555,4.42968 0.76176,1.96728 3.77383,1.64132 4.93165,0.20313 1.15133,-1.28362 1.00956,-3.65536 -0.52149,-4.55274 -0.15117,-0.0572 -0.31335,-0.0807 -0.47461,-0.0801 z m -7.93555,2.08984 c -2.18288,0.16919 -4.1926,2.18715 -3.93554,4.42969 0.76176,1.96728 3.77384,1.64327 4.93164,0.20508 1.15134,-1.28363 1.00949,-3.65538 -0.52149,-4.55274 -0.15124,-0.0572 -0.31335,-0.0825 -0.47461,-0.082 z m -12.48242,7.31836 c 0.148,0.003 0.29289,0.0114 0.4375,0.0273 0.56535,-0.0397 1.1654,0.0823 1.60742,0.45508 3.91845,2.99343 -4.66682,15.137 -11.0039,15.7168 0.6659,-1.84055 1.27291,-3.80448 1.69726,-5.72266 0.26728,-1.76477 0.0919,-3.91716 -0.625,-5.72851 1.46331,-2.3924 4.97047,-4.80155 7.88672,-4.74805 z"
         style="opacity:1;fill:#000000;fill-opacity:1;stroke-width:11.96073818" />
    </g>
  </g>
</svg>
