<?xml version="1.0" encoding="UTF-8" standalone="no"?>
<!-- Created with Inkscape (http://www.inkscape.org/) -->

<svg
   xmlns:dc="http://purl.org/dc/elements/1.1/"
   xmlns:cc="http://creativecommons.org/ns#"
   xmlns:rdf="http://www.w3.org/1999/02/22-rdf-syntax-ns#"
   xmlns:svg="http://www.w3.org/2000/svg"
   xmlns="http://www.w3.org/2000/svg"
   xmlns:sodipodi="http://sodipodi.sourceforge.net/DTD/sodipodi-0.dtd"
   xmlns:inkscape="http://www.inkscape.org/namespaces/inkscape"
   width="500"
   height="500"
   viewBox="0 0 141.11111 141.11111"
   version="1.1"
   id="svg90851"
   inkscape:version="0.91 r13725"
   sodipodi:docname="impactbyte_all_black-trans.svg"
   inkscape:export-filename="/home/mhaidarh/all/org/impactbyte/repo/brand/logo/impactbyte_logo_red_square.svg.png"
   inkscape:export-xdpi="90"
   inkscape:export-ydpi="90">
  <defs
     id="defs90845">
    <clipPath
       clipPathUnits="userSpaceOnUse"
       id="clipPath171994">
      <rect
         style="opacity:0.66000001;fill:#00b0ff;fill-opacity:1;stroke:none;stroke-width:5;stroke-linecap:round;stroke-linejoin:round;stroke-miterlimit:4;stroke-dasharray:none;stroke-dashoffset:0;stroke-opacity:1"
         id="rect171996"
         width="360.70697"
         height="215.52615"
         x="1154.7113"
         y="2285.3784"
         rx="2.088433"
         ry="2.088433" />
    </clipPath>
    <clipPath
       clipPathUnits="userSpaceOnUse"
       id="clipPath90806">
      <rect
         style="opacity:0.66000001;fill:#00b0ff;fill-opacity:1;stroke:none;stroke-width:5;stroke-linecap:round;stroke-linejoin:round;stroke-miterlimit:4;stroke-dasharray:none;stroke-dashoffset:0;stroke-opacity:1"
         id="rect90808"
         width="183.2639"
         height="286.61984"
         x="1067.2368"
         y="2274.9014"
         rx="2.0539536"
         ry="2.088433" />
    </clipPath>
    <clipPath
       id="clipPath171994-7"
       clipPathUnits="userSpaceOnUse">
      <rect
         ry="2.088433"
         rx="2.088433"
         y="2285.3784"
         x="1154.7113"
         height="215.52615"
         width="360.70697"
         id="rect171996-5"
         style="opacity:0.66000001;fill:#00b0ff;fill-opacity:1;stroke:none;stroke-width:5;stroke-linecap:round;stroke-linejoin:round;stroke-miterlimit:4;stroke-dasharray:none;stroke-dashoffset:0;stroke-opacity:1" />
    </clipPath>
    <clipPath
       id="clipPath90806-3"
       clipPathUnits="userSpaceOnUse">
      <rect
         ry="2.088433"
         rx="2.0539536"
         y="2274.9014"
         x="1067.2368"
         height="286.61984"
         width="183.2639"
         id="rect90808-5"
         style="opacity:0.66000001;fill:#00b0ff;fill-opacity:1;stroke:none;stroke-width:5;stroke-linecap:round;stroke-linejoin:round;stroke-miterlimit:4;stroke-dasharray:none;stroke-dashoffset:0;stroke-opacity:1" />
    </clipPath>
    <clipPath
       id="clipPath171994-753"
       clipPathUnits="userSpaceOnUse">
      <rect
         ry="2.088433"
         rx="2.088433"
         y="2285.3784"
         x="1154.7113"
         height="215.52615"
         width="360.70697"
         id="rect171996-56"
         style="opacity:0.66000001;fill:#00b0ff;fill-opacity:1;stroke:none;stroke-width:5;stroke-linecap:round;stroke-linejoin:round;stroke-miterlimit:4;stroke-dasharray:none;stroke-dashoffset:0;stroke-opacity:1" />
    </clipPath>
    <clipPath
       id="clipPath90806-2"
       clipPathUnits="userSpaceOnUse">
      <rect
         ry="2.088433"
         rx="2.0539536"
         y="2274.9014"
         x="1067.2368"
         height="286.61984"
         width="183.2639"
         id="rect90808-9"
         style="opacity:0.66000001;fill:#00b0ff;fill-opacity:1;stroke:none;stroke-width:5;stroke-linecap:round;stroke-linejoin:round;stroke-miterlimit:4;stroke-dasharray:none;stroke-dashoffset:0;stroke-opacity:1" />
    </clipPath>
    <clipPath
       clipPathUnits="userSpaceOnUse"
       id="clipPath171994-75">
      <rect
         style="opacity:0.66000001;fill:#00b0ff;fill-opacity:1;stroke:none;stroke-width:5;stroke-linecap:round;stroke-linejoin:round;stroke-miterlimit:4;stroke-dasharray:none;stroke-dashoffset:0;stroke-opacity:1"
         id="rect171996-3"
         width="360.70697"
         height="215.52615"
         x="1154.7113"
         y="2285.3784"
         rx="2.088433"
         ry="2.088433" />
    </clipPath>
    <clipPath
       clipPathUnits="userSpaceOnUse"
       id="clipPath90806-5">
      <rect
         style="opacity:0.66000001;fill:#00b0ff;fill-opacity:1;stroke:none;stroke-width:5;stroke-linecap:round;stroke-linejoin:round;stroke-miterlimit:4;stroke-dasharray:none;stroke-dashoffset:0;stroke-opacity:1"
         id="rect90808-6"
         width="183.2639"
         height="286.61984"
         x="1067.2368"
         y="2274.9014"
         rx="2.0539536"
         ry="2.088433" />
    </clipPath>
    <clipPath
       id="clipPath171994-7-1"
       clipPathUnits="userSpaceOnUse">
      <rect
         ry="2.088433"
         rx="2.088433"
         y="2285.3784"
         x="1154.7113"
         height="215.52615"
         width="360.70697"
         id="rect171996-5-2"
         style="opacity:0.66000001;fill:#00b0ff;fill-opacity:1;stroke:none;stroke-width:5;stroke-linecap:round;stroke-linejoin:round;stroke-miterlimit:4;stroke-dasharray:none;stroke-dashoffset:0;stroke-opacity:1" />
    </clipPath>
    <clipPath
       id="clipPath90806-3-7"
       clipPathUnits="userSpaceOnUse">
      <rect
         ry="2.088433"
         rx="2.0539536"
         y="2274.9014"
         x="1067.2368"
         height="286.61984"
         width="183.2639"
         id="rect90808-5-0"
         style="opacity:0.66000001;fill:#00b0ff;fill-opacity:1;stroke:none;stroke-width:5;stroke-linecap:round;stroke-linejoin:round;stroke-miterlimit:4;stroke-dasharray:none;stroke-dashoffset:0;stroke-opacity:1" />
    </clipPath>
    <clipPath
       id="clipPath171994-7535"
       clipPathUnits="userSpaceOnUse">
      <rect
         ry="2.088433"
         rx="2.088433"
         y="2285.3784"
         x="1154.7113"
         height="215.52615"
         width="360.70697"
         id="rect171996-6"
         style="opacity:0.66000001;fill:#00b0ff;fill-opacity:1;stroke:none;stroke-width:5;stroke-linecap:round;stroke-linejoin:round;stroke-miterlimit:4;stroke-dasharray:none;stroke-dashoffset:0;stroke-opacity:1" />
    </clipPath>
    <clipPath
       id="clipPath90806-29"
       clipPathUnits="userSpaceOnUse">
      <rect
         ry="2.088433"
         rx="2.0539536"
         y="2274.9014"
         x="1067.2368"
         height="286.61984"
         width="183.2639"
         id="rect90808-1"
         style="opacity:0.66000001;fill:#00b0ff;fill-opacity:1;stroke:none;stroke-width:5;stroke-linecap:round;stroke-linejoin:round;stroke-miterlimit:4;stroke-dasharray:none;stroke-dashoffset:0;stroke-opacity:1" />
    </clipPath>
    <clipPath
       clipPathUnits="userSpaceOnUse"
       id="clipPath171994-7-2">
      <rect
         style="opacity:0.66000001;fill:#00b0ff;fill-opacity:1;stroke:none;stroke-width:5;stroke-linecap:round;stroke-linejoin:round;stroke-miterlimit:4;stroke-dasharray:none;stroke-dashoffset:0;stroke-opacity:1"
         id="rect171996-5-7"
         width="360.70697"
         height="215.52615"
         x="1154.7113"
         y="2285.3784"
         rx="2.088433"
         ry="2.088433" />
    </clipPath>
    <clipPath
       clipPathUnits="userSpaceOnUse"
       id="clipPath90806-3-0">
      <rect
         style="opacity:0.66000001;fill:#00b0ff;fill-opacity:1;stroke:none;stroke-width:5;stroke-linecap:round;stroke-linejoin:round;stroke-miterlimit:4;stroke-dasharray:none;stroke-dashoffset:0;stroke-opacity:1"
         id="rect90808-5-9"
         width="183.2639"
         height="286.61984"
         x="1067.2368"
         y="2274.9014"
         rx="2.0539536"
         ry="2.088433" />
    </clipPath>
    <clipPath
       clipPathUnits="userSpaceOnUse"
       id="clipPath171994-753-3">
      <rect
         style="opacity:0.66000001;fill:#00b0ff;fill-opacity:1;stroke:none;stroke-width:5;stroke-linecap:round;stroke-linejoin:round;stroke-miterlimit:4;stroke-dasharray:none;stroke-dashoffset:0;stroke-opacity:1"
         id="rect171996-56-6"
         width="360.70697"
         height="215.52615"
         x="1154.7113"
         y="2285.3784"
         rx="2.088433"
         ry="2.088433" />
    </clipPath>
    <clipPath
       clipPathUnits="userSpaceOnUse"
       id="clipPath90806-2-0">
      <rect
         style="opacity:0.66000001;fill:#00b0ff;fill-opacity:1;stroke:none;stroke-width:5;stroke-linecap:round;stroke-linejoin:round;stroke-miterlimit:4;stroke-dasharray:none;stroke-dashoffset:0;stroke-opacity:1"
         id="rect90808-9-6"
         width="183.2639"
         height="286.61984"
         x="1067.2368"
         y="2274.9014"
         rx="2.0539536"
         ry="2.088433" />
    </clipPath>
    <clipPath
       id="clipPath171994-75-2"
       clipPathUnits="userSpaceOnUse">
      <rect
         ry="2.088433"
         rx="2.088433"
         y="2285.3784"
         x="1154.7113"
         height="215.52615"
         width="360.70697"
         id="rect171996-3-6"
         style="opacity:0.66000001;fill:#00b0ff;fill-opacity:1;stroke:none;stroke-width:5;stroke-linecap:round;stroke-linejoin:round;stroke-miterlimit:4;stroke-dasharray:none;stroke-dashoffset:0;stroke-opacity:1" />
    </clipPath>
    <clipPath
       id="clipPath90806-5-1"
       clipPathUnits="userSpaceOnUse">
      <rect
         ry="2.088433"
         rx="2.0539536"
         y="2274.9014"
         x="1067.2368"
         height="286.61984"
         width="183.2639"
         id="rect90808-6-8"
         style="opacity:0.66000001;fill:#00b0ff;fill-opacity:1;stroke:none;stroke-width:5;stroke-linecap:round;stroke-linejoin:round;stroke-miterlimit:4;stroke-dasharray:none;stroke-dashoffset:0;stroke-opacity:1" />
    </clipPath>
    <clipPath
       clipPathUnits="userSpaceOnUse"
       id="clipPath171994-7-1-7">
      <rect
         style="opacity:0.66000001;fill:#00b0ff;fill-opacity:1;stroke:none;stroke-width:5;stroke-linecap:round;stroke-linejoin:round;stroke-miterlimit:4;stroke-dasharray:none;stroke-dashoffset:0;stroke-opacity:1"
         id="rect171996-5-2-9"
         width="360.70697"
         height="215.52615"
         x="1154.7113"
         y="2285.3784"
         rx="2.088433"
         ry="2.088433" />
    </clipPath>
    <clipPath
       clipPathUnits="userSpaceOnUse"
       id="clipPath90806-3-7-2">
      <rect
         style="opacity:0.66000001;fill:#00b0ff;fill-opacity:1;stroke:none;stroke-width:5;stroke-linecap:round;stroke-linejoin:round;stroke-miterlimit:4;stroke-dasharray:none;stroke-dashoffset:0;stroke-opacity:1"
         id="rect90808-5-0-0"
         width="183.2639"
         height="286.61984"
         x="1067.2368"
         y="2274.9014"
         rx="2.0539536"
         ry="2.088433" />
    </clipPath>
  </defs>
  <sodipodi:namedview
     id="base"
     pagecolor="#ffffff"
     bordercolor="#666666"
     borderopacity="1.0"
     inkscape:pageopacity="0.0"
     inkscape:pageshadow="2"
     inkscape:zoom="1.3832354"
     inkscape:cx="293.98654"
     inkscape:cy="283.86796"
     inkscape:document-units="px"
     inkscape:current-layer="layer1"
     showgrid="false"
     inkscape:window-width="1329"
     inkscape:window-height="744"
     inkscape:window-x="37"
     inkscape:window-y="24"
     inkscape:window-maximized="1"
     units="px"
     inkscape:showpageshadow="false" />
  <metadata
     id="metadata90848">
    <rdf:RDF>
      <cc:Work
         rdf:about="">
        <dc:format>image/svg+xml</dc:format>
        <dc:type
           rdf:resource="http://purl.org/dc/dcmitype/StillImage" />
        <dc:title />
      </cc:Work>
    </rdf:RDF>
  </metadata>
  <g
     inkscape:label="Layer 1"
     inkscape:groupmode="layer"
     id="layer1"
     transform="translate(0,-155.88891)">
    <g
       id="layer1-7"
       inkscape:label="Layer 1"
       style="fill:#000000">
      <g
         style="fill:#000000"
         id="g3411">
        <path
           id="path172264-6-5"
           d="m 85.367019,182.55069 c -0.264938,-3e-5 -0.56675,0.0532 -0.908265,0.1699 -2.943897,0.38298 -5.837369,1.18641 -8.611659,2.27089 -5.200614,1.62975 -10.211148,3.79324 -15.078195,6.23848 -5.69656,2.7917 -12.169249,5.29513 -15.535622,11.04213 -0.64688,1.0114 -0.966334,2.04137 -1.033382,3.067 -0.0043,0.066 -0.0074,0.13201 -0.0097,0.19798 0.0093,0.49351 0.267855,1.70805 2.682884,1.19405 2.999705,-0.63848 2.761352,-3.10191 5.860511,-2.78407 3.09916,0.31788 1.175379,-3.86528 5.801029,-3.41687 4.625654,0.4484 5.178488,-0.67421 6.471114,-2.24053 0.621144,-0.75266 1.836752,-2.32419 2.777927,-2.33892 1.017423,-0.0159 1.786367,1.54854 3.148245,1.28065 2.621694,-0.51564 2.09012,-5.05646 5.800369,-4.56833 3.710244,0.48816 7.515171,-1.63678 7.515171,-1.63678 0,0 0.514836,-0.73427 0.489595,-2.06045 0.0406,-0.14205 1.275321,-1.75712 1.275321,-1.75712 0.462056,-1.21215 0.992528,-1.20867 0.957146,-2.80635 -0.08689,-1.02406 -0.558467,-1.85153 -1.602536,-1.85166 z"
           style="opacity:1;fill:#000000;fill-opacity:1;stroke-width:11.96073818"
           inkscape:connector-curvature="0"
           sodipodi:nodetypes="cccccccccssscsccccsc" />
        <path
           style="opacity:1;fill:#000000;fill-opacity:1;stroke-width:3.16461182"
           d="m 243.52539,131.20898 c -13.2691,1.02884 -25.48439,13.29454 -23.92187,26.92579 4.63058,11.9588 22.93864,9.98221 29.97656,1.24023 6.99863,-7.80307 6.13846,-22.22303 -3.16797,-27.67773 -0.91917,-0.35008 -1.90659,-0.49119 -2.88672,-0.48829 z m -3.88867,12.48243 c 0.9757,0.0833 1.89544,1.32635 2.34375,2.11523 0.75241,1.44769 2.07152,3.03372 1.47265,4.76367 -1.32913,2.21925 -3.70214,3.53463 -5.96679,4.63086 -1.16114,0.48239 -2.31546,0.99687 -3.53516,1.31641 -1.1876,0.40968 -2.7469,0.38237 -3.44531,-0.84375 -0.79567,-1.60214 0.0849,-3.41773 0.88086,-4.85156 1.28393,-2.01774 2.60244,-4.1409 4.58008,-5.54883 0.91632,-0.40213 1.52251,-1.01948 2.6914,-1.21875 0.3222,-0.28949 0.65328,-0.39099 0.97852,-0.36328 z"
           transform="matrix(0.28222224,0,0,0.28222224,-4.3063697e-6,155.88891)"
           id="path172266-1-9"
           inkscape:connector-curvature="0" />
        <path
           style="fill:#000000;fill-opacity:1;fill-rule:evenodd;stroke:none;stroke-width:0.83730352px;stroke-linecap:butt;stroke-linejoin:miter;stroke-opacity:1"
           d="m 251.93945,170.30664 c -6.49054,0.0875 -14.42573,3.50607 -22.62695,11.83594 l -3.39648,1.82226 9.98046,16.11524 c 0.53415,-3.52917 0.1836,-7.83301 -1.25,-11.45508 2.92661,-4.78478 9.93899,-9.6031 15.77149,-9.49609 0.296,0.006 0.58775,0.0228 0.87695,0.0547 1.13071,-0.0793 2.3308,0.16461 3.21485,0.91016 7.83688,5.98688 -9.33366,30.27398 -22.00782,31.43359 1.3318,-3.6811 2.54582,-7.60894 3.39453,-11.44531 l -7.75195,21.08203 c 50.77643,-15.86547 44.99736,-51.14308 23.79492,-50.85742 z"
           transform="matrix(0.28222224,0,0,0.28222224,-4.3063697e-6,155.88891)"
           id="path172274-8-2"
           inkscape:connector-curvature="0" />
        <path
           id="path172278-7-2"
           d="m 85.367019,182.55066 c -0.264915,-4e-5 -0.566742,0.0532 -0.908282,0.1699 -2.943888,0.383 -5.837358,1.18641 -8.611645,2.27092 -5.200619,1.62971 -10.211162,3.79321 -15.078183,6.23845 -5.696556,2.7917 -11.233787,4.10668 -15.535639,11.04214 -4.301851,6.93546 3.013844,17.28352 6.10941,12.65784 1.696233,-2.70076 2.898526,-0.40292 3.94502,0.94472 1.770522,-0.68231 1.230964,-5.15134 3.653686,-3.63554 0.924635,4.17574 3.342472,-1.59379 5.235831,-1.26558 0.0378,2.10908 0.0043,5.66767 -2.48206,6.27336 -2.263994,-3.41388 -2.018064,1.11968 -4.156884,1.68107 -2.218971,-0.87303 -4.960552,-1.37733 -4.960552,-1.37733 0,0 -1.875901,1.50373 -1.677033,3.19215 0.405762,3.44505 3.457748,5.9901 6.174991,7.34781 0.445944,0.22554 0.977006,0.21394 1.44011,0.0513 4.208916,-2.47106 9.325476,-3.00769 13.372054,-5.83065 3.223076,-1.58737 1.67937,2.9052 4.004485,3.04902 3.399261,-2.39962 6.727121,-4.90734 9.87748,-7.62789 4.374781,-4.39683 7.951375,-9.57655 10.936975,-15.00534 2.073447,-3.2822 -3.12016,-2.90383 -4.54596,-1.27527 -3.355424,1.74254 -1.83474,-3.36277 -0.7882,-4.73776 0.781707,-2.0385 2.6187,-4.053 1.964034,-6.3454 -1.693087,-1.71828 -4.3662,-0.7479 -6.429882,-0.29695 -2.421491,0.9793 -1.966118,-1.4012 -0.750021,-2.48427 1.086251,-1.50684 1.367605,-5.03649 -0.789735,-5.03675 z m -3.302716,3.83633 c 2.470549,0.62272 -0.35407,3.29566 -1.080347,4.50118 -1.780715,1.68086 0.03738,4.02951 2.156957,3.01674 2.149652,-0.32434 4.46024,-0.92786 6.545754,0.007 -0.899489,3.48616 -3.706948,6.49555 -3.374498,10.26009 0.879569,2.16375 3.703594,1.27242 5.450288,0.88959 -4.768736,7.21971 -8.699103,10.92564 -14.329312,15.66426 -0.50286,-1.10439 0.08427,-3.51998 -2.098766,-3.14471 -2.069629,0.31609 -3.373649,2.18724 -5.385767,2.7711 -4.098397,1.85453 -7.862219,2.98169 -12.034097,4.64471 -2.352385,1.24192 -3.841595,-3.91049 -3.841595,-3.91049 0,0 2.1745,0.53097 2.821519,0.78735 1.698484,0.66656 2.434742,-1.27704 3.337375,-2.75181 1.133696,0.76921 2.934841,2.14192 3.825241,0.009 0.836117,-1.50926 1.954564,-4.22846 2.517908,-6.7749 0.29588,-1.95364 -0.36129,-4.75239 -2.424081,-5.27971 -1.377883,0.31525 -2.931443,4.38709 -3.898467,1.82463 -1.105366,-2.74277 -3.361629,1.58389 -4.361572,2.77879 -1.312047,1.01672 -1.801782,-3.60925 -3.406567,-1.81189 -0.693401,0.83612 -2.431344,2.69303 -2.431344,2.69303 l -2.267646,-2.74217 c -2.20678,-2.66866 -0.08877,-7.27004 2.495439,-9.36222 9.321102,-5.93026 16.925244,-10.33456 31.783578,-14.06954 z"
           style="opacity:1;fill:#000000;fill-opacity:1;stroke-width:3.16461182"
           inkscape:connector-curvature="0"
           sodipodi:nodetypes="cccczcccccccsccccccccccccccccccccccccccccccccscc" />
        <path
           style="opacity:1;fill:#000000;fill-opacity:1;stroke-width:3.16461182"
           d="m 76.354581,197.70526 c -1.232152,0.0955 -2.3664,1.23445 -2.221306,2.50024 0.430016,1.11042 2.13007,0.92693 2.783588,0.11515 0.649865,-0.72454 0.569928,-2.0636 -0.294265,-2.57011 -0.08533,-0.0323 -0.177035,-0.0456 -0.268017,-0.0453 z"
           id="path172280-9-8"
           inkscape:connector-curvature="0" />
        <path
           inkscape:connector-curvature="0"
           id="path172282-2-9"
           d="m 82.198397,201.13289 c -1.23211,0.0955 -2.366358,1.23445 -2.221264,2.50024 0.429972,1.11042 2.130028,0.92693 2.783546,0.11515 0.649864,-0.72453 0.569927,-2.06359 -0.294266,-2.57011 -0.08533,-0.0323 -0.176993,-0.0456 -0.268016,-0.0453 z"
           style="opacity:1;fill:#000000;fill-opacity:1;stroke-width:3.16461182" />
        <path
           style="opacity:1;fill:#000000;fill-opacity:1;stroke-width:3.16461182"
           d="m 77.719341,202.31314 c -1.23211,0.0955 -2.366358,1.23445 -2.221264,2.50024 0.429972,1.11042 2.130028,0.92693 2.783545,0.11515 0.649865,-0.72454 0.569927,-2.0636 -0.294223,-2.57011 -0.08537,-0.0323 -0.177035,-0.0456 -0.268058,-0.0453 z"
           id="path172284-0-7"
           inkscape:connector-curvature="0" />
      </g>
      <text
         sodipodi:linespacing="125%"
         id="text3359-3-3"
         y="245.88213"
         x="41.341568"
         style="font-style:normal;font-weight:normal;font-size:14.58483315px;line-height:125%;font-family:sans-serif;letter-spacing:0px;word-spacing:0px;fill:#000000;fill-opacity:1;stroke:none;stroke-width:1px;stroke-linecap:butt;stroke-linejoin:miter;stroke-opacity:1"
         xml:space="preserve"><tspan
           style="font-style:normal;font-variant:normal;font-weight:bold;font-stretch:normal;font-family:Montserrat;-inkscape-font-specification:'Montserrat Bold';fill:#000000;fill-opacity:1"
           y="245.88213"
           x="41.341568"
           id="tspan3361-6-6"
           sodipodi:role="line">IMPACT</tspan></text>
      <text
         sodipodi:linespacing="100%"
         id="text3425-1"
         y="271.28256"
         x="42.038597"
         style="font-style:normal;font-weight:normal;font-size:31.02488708px;line-height:100%;font-family:sans-serif;letter-spacing:0px;word-spacing:0px;fill:#000000;fill-opacity:1;stroke:none;stroke-width:1px;stroke-linecap:butt;stroke-linejoin:miter;stroke-opacity:1"
         xml:space="preserve"><tspan
           dx="0"
           style="font-style:normal;font-variant:normal;font-weight:500;font-stretch:normal;line-height:100%;font-family:OneDirection;-inkscape-font-specification:'OneDirection Medium';letter-spacing:0.77562213px;fill:#000000;fill-opacity:1"
           y="271.28256"
           x="42.038597"
           id="tspan3427-2"
           sodipodi:role="line">BYTE</tspan></text>
    </g>
  </g>
</svg>
